<svg viewBox="0 0 32 30" width="20" height="19"
    xmlns="http://www.w3.org/2000/svg">
    <g fill="none" fill-rule="evenodd">
        <path d="M0-1h32v32H0z"/>
        <path d="M.356 0L17.2 3.624c5.215.978 9.245 5.36 9.74 10.773L32 19.45l-7.202 3.543c-.453.274-.937.685-1.453 1.234v-.017a11.904 11.904 0 01-8.04 3.41 6.36 6.36 0 01-.903-.011 10.457 10.457 0 01-.445-.03c-2.35-.143-4.21.041-5.577.553-1.252.61-2.938 1.066-5.058 1.368l.059-.043-.019.009c2.151-2.58 2.61-5.135 1.375-7.665a12.108 12.108 0 01-1.74-6.279c0-.672.054-1.33.158-1.972.035-.927-.098-1.735-.398-2.425L0 6.084l3.781.601L.356 0zm14.666 8.167c-4.043 0-7.32 3.306-7.32 7.385 0 4.078 3.277 7.384 7.32 7.384s7.32-3.306 7.32-7.384c0-4.079-3.277-7.385-7.32-7.385zm.03 2.813c2.518 0 4.56 2.06 4.56 4.601s-2.042 4.6-4.56 4.6c-2.52 0-4.561-2.06-4.561-4.6s2.042-4.6 4.56-4.6zm1.885 1.747a.578.578 0 00-.806.157.59.59 0 00.156.814c.72.491 1.067 1.154 1.067 2.051 0 .324.26.586.58.586s.581-.262.581-.586c0-1.284-.535-2.312-1.578-3.022z" fill="#FA6400"/>
    </g>
</svg>