<svg width="18" height="20" viewBox="0 0 18 20" fill="none" xmlns="http://www.w3.org/2000/svg">
<path d="M9.15919 11.2166V15.2239C9.31929 15.2448 9.47368 15.2971 9.61351 15.3778C9.75333 15.4585 9.87583 15.5661 9.97398 15.6943L13.4424 13.6906C13.3805 13.5415 13.3487 13.3817 13.3487 13.2203C13.3487 13.0588 13.3805 12.899 13.4424 12.7499L9.97398 10.7407C9.87634 10.8699 9.75406 10.9785 9.61421 11.0602C9.47436 11.1419 9.31971 11.1951 9.15919 11.2166ZM8.0259 10.7407L4.55749 12.7499C4.61933 12.899 4.65117 13.0588 4.65117 13.2203C4.65117 13.3817 4.61933 13.5415 4.55749 13.6906L8.0259 15.6943C8.22281 15.4366 8.51379 15.2675 8.83513 15.2239V11.2166C8.67559 11.1944 8.52201 11.1409 8.38315 11.0592C8.2443 10.9775 8.1229 10.8693 8.0259 10.7407ZM8.0259 4.30019L4.55749 6.30938C4.61933 6.45848 4.65117 6.61832 4.65117 6.77974C4.65117 6.94115 4.61933 7.10099 4.55749 7.25009L8.0259 9.25928C8.1229 9.13068 8.2443 9.02245 8.38315 8.94079C8.52201 8.85913 8.67559 8.80564 8.83513 8.78337V4.7761C8.51379 4.73252 8.22281 4.56339 8.0259 4.30574V4.30019ZM17.1589 4.465L9.70918 0.168842C9.48924 0.057832 9.24631 0 8.99994 0C8.75357 0 8.51064 0.057832 8.2907 0.168842L0.84095 4.47055C0.634933 4.60545 0.463441 4.78681 0.340262 5.00004C0.217083 5.21327 0.145653 5.45243 0.131714 5.69829L0.131714 14.2999C0.145369 14.546 0.216665 14.7856 0.339857 14.9991C0.463048 15.2127 0.63469 15.3944 0.84095 15.5294L8.2907 19.8312C8.51064 19.9422 8.75357 20 8.99994 20C9.24631 20 9.48924 19.9422 9.70918 19.8312L17.1589 15.5294C17.3652 15.3944 17.5368 15.2127 17.66 14.9991C17.7832 14.7856 17.8545 14.546 17.8682 14.2999V5.69829C17.8542 5.45243 17.7828 5.21327 17.6596 5.00004C17.5364 4.78681 17.3649 4.60545 17.1589 4.47055V4.465ZM10.2295 10C10.2282 10.1617 10.1949 10.3216 10.1314 10.4704L13.6035 12.474C13.7597 12.2698 13.976 12.1198 14.2219 12.0449C14.4678 11.97 14.731 11.9741 14.9745 12.0566C15.2179 12.139 15.4294 12.2957 15.5792 12.5046C15.729 12.7135 15.8096 12.9641 15.8096 13.2212C15.8096 13.4782 15.729 13.7288 15.5792 13.9377C15.4294 14.1466 15.2179 14.3033 14.9745 14.3858C14.731 14.4683 14.4678 14.4723 14.2219 14.3975C13.976 14.3226 13.7597 14.1725 13.6035 13.9684L10.1314 15.9702C10.2092 16.157 10.2396 16.3602 10.2201 16.5616C10.2005 16.7631 10.1315 16.9566 10.0192 17.125C9.90692 17.2933 9.7548 17.4314 9.57635 17.5269C9.39789 17.6224 9.19863 17.6723 8.99624 17.6723C8.79384 17.6723 8.59458 17.6224 8.41613 17.5269C8.23767 17.4314 8.08555 17.2933 7.97326 17.125C7.86097 16.9566 7.79198 16.7631 7.77241 16.5616C7.75284 16.3602 7.7833 16.157 7.86109 15.9702L4.39083 13.9665C4.23462 14.1707 4.01836 14.3207 3.77245 14.3956C3.52654 14.4705 3.26334 14.4664 3.01987 14.3839C2.7764 14.3015 2.56489 14.1448 2.41509 13.9359C2.26529 13.727 2.18473 13.4764 2.18473 13.2193C2.18473 12.9623 2.26529 12.7117 2.41509 12.5028C2.56489 12.2939 2.7764 12.1372 3.01987 12.0547C3.26334 11.9723 3.52654 11.9682 3.77245 12.0431C4.01836 12.1179 4.23462 12.268 4.39083 12.4721L7.86479 10.4704C7.80295 10.3213 7.77112 10.1614 7.77112 10C7.77112 9.83858 7.80295 9.67875 7.86479 9.52964L4.39083 7.52601C4.23462 7.73016 4.01836 7.88022 3.77245 7.95509C3.52654 8.02996 3.26334 8.02588 3.01987 7.94341C2.7764 7.86095 2.56489 7.70426 2.41509 7.49536C2.26529 7.28646 2.18473 7.03587 2.18473 6.77881C2.18473 6.52175 2.26529 6.27116 2.41509 6.06226C2.56489 5.85336 2.7764 5.69667 3.01987 5.61421C3.26334 5.53174 3.52654 5.52766 3.77245 5.60253C4.01836 5.6774 4.23462 5.82746 4.39083 6.03161L7.86479 4.02983C7.76484 3.79291 7.74167 3.53063 7.79855 3.27986C7.85543 3.0291 7.98949 2.80248 8.18188 2.63187C8.37427 2.46127 8.6153 2.35528 8.87107 2.3288C9.12684 2.30232 9.38447 2.3567 9.60773 2.48427C9.83098 2.61185 10.0086 2.8062 10.1157 3.04C10.2227 3.27379 10.2538 3.53526 10.2045 3.78763C10.1551 4.03999 10.028 4.27055 9.8408 4.44686C9.65363 4.62318 9.4159 4.73638 9.16105 4.77054V8.78337C9.32124 8.80518 9.47553 8.85845 9.61505 8.94013C9.75457 9.0218 9.87655 9.13027 9.97398 9.25928L13.4424 7.25009C13.3203 6.96055 13.313 6.63542 13.4219 6.34069C13.5309 6.04596 13.7479 5.80373 14.0289 5.66319C14.31 5.52264 14.6339 5.49431 14.9351 5.58394C15.2363 5.67358 15.492 5.87446 15.6505 6.14581C15.8089 6.41715 15.8581 6.73863 15.7882 7.04495C15.7182 7.35128 15.5343 7.61951 15.2738 7.79517C15.0132 7.97083 14.6956 8.04077 14.3854 7.99078C14.0752 7.94079 13.7956 7.77462 13.6035 7.52601L10.1314 9.52964C10.1949 9.67841 10.2282 9.83827 10.2295 10Z" fill="url(#paint0_linear)"/>
<defs>
<linearGradient id="paint0_linear" x1="8.99994" y1="0" x2="8.99994" y2="20" gradientUnits="userSpaceOnUse">
<stop stop-color="#27AAE1"/>
<stop offset="0.447932" stop-color="#1E75BA"/>
<stop offset="1" stop-color="#92278F"/>
</linearGradient>
</defs>
</svg>
