<svg width="16" height="20" viewBox="0 0 16 20" fill="none" xmlns="http://www.w3.org/2000/svg">
<path d="M0.538443 7.08333V7.33333C0.538443 10.417 2.84583 12.9167 5.69229 12.9167H15.4615V12.6667C15.4615 9.58299 13.1541 7.08333 10.3077 7.08333H0.538443ZM10.3077 6.58333C13.4089 6.58333 15.9231 9.30699 15.9231 12.6667V13.4167H5.69229C2.59106 13.4167 0.0769043 10.693 0.0769043 7.33333V6.58333H10.3077Z" fill="#222222"/>
<path d="M8.69229 0.583328H5.1769C2.61521 0.583328 0.538443 2.83316 0.538443 5.60833V6.58333H8.69229V0.583328ZM9.15383 0.0833282V7.08333H0.0769043V5.60833C0.0769043 2.557 2.36029 0.0833282 5.1769 0.0833282H9.15383ZM7.30767 19.4167H10.8231C13.3848 19.4167 15.4615 17.1668 15.4615 14.3917V13.4167H7.30767V19.4167ZM15.9231 12.9167V14.3917C15.9231 17.443 13.6397 19.9167 10.8231 19.9167H6.84614V12.9167H15.9231Z" fill="#222222"/>
</svg>
