<svg width="20" height="20" viewBox="0 0 20 20" fill="none" xmlns="http://www.w3.org/2000/svg">
<g clip-path="url(#clip0)">
<path d="M12.896 11.1667L8.36357 15.6991C7.97305 16.0897 7.33988 16.0897 6.94936 15.6991L4.61357 13.3633C4.22305 12.9728 4.22305 12.3397 4.61357 11.9491L9.14605 7.41666" fill="#8691AD"/>
<path fill-rule="evenodd" clip-rule="evenodd" d="M6.19393 14.1188C6.42174 14.3466 6.42174 14.7159 6.19393 14.9437L1.81893 19.3187C1.59113 19.5465 1.22178 19.5465 0.993974 19.3187C0.766169 19.0909 0.766169 18.7216 0.993974 18.4938L5.36897 14.1188C5.59678 13.891 5.96613 13.891 6.19393 14.1188Z" fill="#091C37"/>
<path fill-rule="evenodd" clip-rule="evenodd" d="M9.74397 5.99376C9.97178 5.76596 10.3411 5.76596 10.5689 5.99376L11.8189 7.24376C12.0467 7.47157 12.0467 7.84091 11.8189 8.06872C11.5911 8.29652 11.2218 8.29652 10.994 8.06872L9.74397 6.81872C9.51617 6.59091 9.51617 6.22157 9.74397 5.99376Z" fill="#091C37"/>
<path fill-rule="evenodd" clip-rule="evenodd" d="M7.86897 7.86876C8.09678 7.64096 8.46613 7.64096 8.69393 7.86876L9.94393 9.11876C10.1717 9.34657 10.1717 9.71591 9.94393 9.94372C9.71613 10.1715 9.34678 10.1715 9.11897 9.94372L7.86897 8.69372C7.64117 8.46591 7.64117 8.09657 7.86897 7.86876Z" fill="#091C37"/>
<path fill-rule="evenodd" clip-rule="evenodd" d="M5.99397 9.74376C6.22178 9.51596 6.59113 9.51596 6.81893 9.74376L8.06893 10.9938C8.29674 11.2216 8.29674 11.5909 8.06893 11.8187C7.84113 12.0465 7.47178 12.0465 7.24397 11.8187L5.99397 10.5687C5.76617 10.3409 5.76617 9.97157 5.99397 9.74376Z" fill="#091C37"/>
<path fill-rule="evenodd" clip-rule="evenodd" d="M19.0064 3.18126C19.2342 3.40907 19.2342 3.77841 19.0064 4.00622L15.8814 7.13122C15.6536 7.35903 15.2843 7.35903 15.0565 7.13122C14.8287 6.90341 14.8287 6.53407 15.0565 6.30626L18.1815 3.18126C18.4093 2.95346 18.7786 2.95346 19.0064 3.18126Z" fill="#091C37"/>
<path fill-rule="evenodd" clip-rule="evenodd" d="M17.1314 1.30626C17.3592 1.53407 17.3592 1.90341 17.1314 2.13122L14.0064 5.25622C13.7786 5.48403 13.4093 5.48403 13.1815 5.25622C12.9537 5.02841 12.9537 4.65907 13.1815 4.43126L16.3065 1.30626C16.5343 1.07846 16.9036 1.07846 17.1314 1.30626Z" fill="#091C37"/>
<path fill-rule="evenodd" clip-rule="evenodd" d="M9.74397 0.993761C9.97178 0.765955 10.3411 0.765955 10.5689 0.993761L19.3189 9.74376C19.5467 9.97157 19.5467 10.3409 19.3189 10.5687C19.0911 10.7965 18.7218 10.7965 18.494 10.5687L9.74397 1.81872C9.51617 1.59091 9.51617 1.22157 9.74397 0.993761Z" fill="#091C37"/>
<path fill-rule="evenodd" clip-rule="evenodd" d="M15.369 0.368761C15.5968 0.140955 15.9661 0.140955 16.1939 0.368761L19.9439 4.11876C20.1717 4.34657 20.1717 4.71591 19.9439 4.94372C19.7161 5.17153 19.3468 5.17153 19.119 4.94372L15.369 1.19372C15.1412 0.965913 15.1412 0.596567 15.369 0.368761Z" fill="#091C37"/>
<path fill-rule="evenodd" clip-rule="evenodd" d="M13.0689 3.49376C13.2967 3.72157 13.2967 4.09091 13.0689 4.31872L5.02601 12.3616C4.86329 12.5243 4.86329 12.7881 5.02601 12.9509L7.3618 15.2867C7.52451 15.4494 7.78833 15.4494 7.95105 15.2867L15.9939 7.24376C16.2218 7.01595 16.5911 7.01595 16.8189 7.24376C17.0467 7.47157 17.0467 7.84091 16.8189 8.06872L8.77601 16.1116C8.15768 16.7299 7.15517 16.7299 6.53684 16.1116L4.20105 13.7758C3.58272 13.1575 3.58272 12.155 4.20105 11.5367L12.2439 3.49376C12.4718 3.26596 12.8411 3.26596 13.0689 3.49376Z" fill="#091C37"/>
</g>
<defs>
<clipPath id="clip0">
<rect width="20" height="20" fill="white"/>
</clipPath>
</defs>
</svg>
